<svg xmlns="http://www.w3.org/2000/svg" viewBox="0 0 920 333.25753">
	<path fill="#95a5a6" d="M 609.19537,224.05657 C 461.50106,230.67418 339.45441,246.29773 246.44372,270.49395 172.50555,289.72666 139.36893,308.84894 128.47832,315.13404 127.2247,315.85732 126.23443,316.4277 125.59973,316.76022 120.82068,319.2529 108.30631,324.59141 95.357481,320.32206 84.832159,316.85124 75.931812,307.764 68.901581,293.31399 49.850906,254.15561 44.417738,120.58366 55.252521,62.989891 64.981739,11.273461 84.794538,11.250403 95.389034,11.298946 H 95.829561 C 100.68628,11.298946 115.11688,13.54163 123.43957,23.779335 129.18584,30.8484 130.83266,40.510871 128.32299,52.541024 114.67029,120.62128 115.05377,166.05504 115.1994,183.15914 115.21154,184.56568 115.22125,185.77197 115.22125,186.77438 115.22125,189.26706 115.6193,192.80341 116.12293,197.28028 117.7115,211.40264 120.66777,237.68985 111.04898,249.34137 108.0284,253.00151 103.91074,254.98812 98.555247,255.41166 94.000706,255.67986 90.125766,254.15804 86.72776,250.71635 69.680695,233.45569 69.90642,176.38134 71.431881,155.84524 71.431881,155.84524 69.752296,152.13171 65.893133,151.94361 62.033969,151.75429 60.16628,155.00667 60.16628,155.00667 59.925992,158.22992 54.558357,234.21175 78.687837,258.6519 84.432893,264.47099 91.347834,267.18332 99.34771,266.6809 107.89248,266.00616 114.76009,262.59359 119.76123,256.53543 132.4285,241.18858 129.24894,212.91354 127.3497,196.01938 126.90432,192.05585 126.5184,188.63479 126.5184,186.77559 126.5184,185.7477 126.50869,184.50864 126.49534,183.06448 126.35336,166.28076 125.97594,121.6965 139.38956,54.806766 142.61888,39.328851 140.20023,26.491671 132.20399,16.654446 121.49785,3.4835341 103.72871,0.00421911 95.828347,0.00421911 H 95.397529 C 83.485092,-0.06374089 55.612952,-0.02976089 44.150752,60.901331 33.819602,115.82159 37.131443,253.8328 58.742758,298.25687 67.157676,315.55272 78.286144,326.58653 91.818701,331.04884 96.611102,332.63012 101.28457,333.25754 105.69227,333.25754 116.38992,333.25633 125.50264,329.55129 130.82537,326.77342 131.67245,326.33289 132.70035,325.73824 134.12508,324.91665 216.83011,277.18924 385.72554,245.37784 609.70022,235.34159 L 609.19537,224.05657 z"/>
	<g fill="#ecf0f1">
		<path d="M 77.375185,103.53805 C 75.695125,114.35311 66.378154,122.28163 56.359375,125.4536 40.381,130.59011 21.536146,126.73974 9.3385351,115.06346 2.1681991,108.28031 -2.0789712,97.683912 1.0044072,87.955479 4.2484537,77.192756 14.641555,70.301881 25.183769,67.975464 41.031959,64.452366 59.012129,69.106998 70.085539,81.262035 75.484636,87.234704 78.76893,95.433786 77.375185,103.53805 z"/>
		<path d="M 170.30826,120.67214 C 168.62819,131.4872 159.31122,139.41571 149.29244,142.58769 133.31407,147.72421 114.46921,143.87383 102.2716,132.19755 95.101267,125.41439 90.854095,114.818 93.937475,105.08957 97.181521,94.326844 107.57462,87.435968 118.11684,85.109552 133.96503,81.586452 151.94519,86.241085 163.0186,98.396122 168.4177,104.36879 171.70199,112.56787 170.30826,120.67214 z"/>
	</g>
	<g fill="#3498db">
		<path d="M 58.285897,100.4242 C 57.438136,105.88152 52.736801,109.88233 47.681283,111.48295 39.618589,114.07489 30.109433,112.13197 23.954542,106.24006 20.336372,102.81722 18.193282,97.470217 19.749162,92.561203 21.386105,87.130292 26.630462,83.653075 31.950105,82.479134 39.947114,80.701332 49.019944,83.050095 54.607559,89.18358 57.331954,92.197438 58.989188,96.334746 58.285897,100.4242 z"/>
		<path d="M 151.21714,118.02191 C 150.36938,123.47923 145.66804,127.48004 140.61252,129.08065 132.54983,131.6726 123.04068,129.72967 116.88579,123.83777 113.26762,120.41493 111.12453,115.06793 112.68041,110.15891 114.31735,104.728 119.56171,101.25078 124.88135,100.07684 132.87836,98.299042 141.95118,100.6478 147.53881,106.78129 150.2632,109.79515 151.92043,113.93246 151.21714,118.02191 z"/>
		<path d="M 629.44748,196.80214 C 628.28852,184.13243 621.46824,178.36674 608.99028,179.50629 602.65542,180.08638 597.44313,182.93585 593.36431,188.04984 589.27942,193.16991 587.52095,198.79846 588.08283,204.94157 588.38137,208.20487 589.13743,211.10046 590.32673,213.65382 591.37647,215.90985 592.75995,217.8989 594.50506,219.60033 598.22103,223.23012 603.10809,224.76772 609.15532,224.21433 613.35065,223.83084 617.06175,222.2981 620.30563,219.67193 621.73886,218.51418 623.08957,217.16226 624.33713,215.56519 628.40866,210.35654 630.11495,204.10299 629.44748,196.80214 z"/>
	</g>
	<path fill="#34495e" d="M 10.163416,66.819929 C 10.163416,66.819929 33.886348,46.129716 54.502533,51.213375 75.118717,56.29582 75.825017,52.201224 74.69518,47.965852 73.565343,43.729268 68.058147,40.62252 51.536559,40.481745 35.014971,40.340971 16.942437,53.056793 10.163416,66.819929 z M 177.91081,100.41407 C 177.91081,100.41407 162.22659,71.647523 140.99633,71.313791 120.02457,70.983699 121.59129,66.842986 123.27209,62.793292 124.82547,59.049418 131.59114,56.909888 147.27172,62.116118 162.95109,67.322348 175.94482,85.19707 177.91081,100.41407 z"/>
	<path fill="#e67e22" d="M 202.63251,245.11449 C 212.7258,256.00389 224.97318,260.78779 239.37345,259.47106 245.89762,258.8752 252.01281,256.908 257.71175,253.58402 263.40584,250.25762 267.97616,246.73947 271.41421,243.03807 274.85105,239.3391 278.04396,235.12557 281.00144,230.39991 283.95649,225.67911 285.78899,222.41217 286.49407,220.60638 287.20159,218.79937 287.79866,217.39162 288.28531,216.37829 L 272.51735,202.71709 269.77103,207.61507 C 267.7298,210.70483 264.63276,213.89168 260.47991,217.17682 256.32464,220.46075 251.94728,222.31266 247.33934,222.73256 238.31278,223.559 231.10416,220.39643 225.7074,213.23999 220.30821,206.0884 217.04127,196.27423 215.90051,183.7902 214.75975,171.31103 216.21725,161.83545 220.27301,155.36588 224.32756,148.89754 230.57747,145.27745 239.02636,144.5044 247.47283,143.73257 255.3999,145.7204 262.80391,150.46183 L 279.72476,113.19664 C 273.6484,110.26707 267.75043,108.24162 262.0345,107.11785 256.31372,105.99772 250.67424,105.68826 245.10758,106.19674 226.86393,107.86541 211.73795,118.1553 199.72236,137.06277 187.70313,155.9751 182.76753,177.13982 184.90827,200.563 186.63155,219.38067 192.53558,234.23117 202.63251,245.11449 z M 339.36946,171.6302 329.58321,23.261139 290.78527,34.06801 307.56413,179.47595 310.28861,244.60722 C 322.66341,242.22133 335.42414,239.95559 348.55864,237.80635 L 339.36946,171.6302 z M 411.65232,165.02229 408.55286,92.995493 370.61898,103.7247 380.13339,172.84134 382.63457,232.61226 C 394.90865,230.87564 407.49098,229.23852 420.35364,227.69122 L 411.65232,165.02229 z M 371.0231,70.001918 C 375.05459,73.895061 380.2863,75.544307 386.7231,74.956938 393.15261,74.369568 398.58578,71.308936 403.01532,65.771401 407.44608,60.23872 409.33682,53.91843 408.68756,46.812958 408.0383,39.711126 405.82353,34.541304 402.04203,31.30349 398.26054,28.068103 393.10407,26.747735 386.57868,27.3436 380.04844,27.939464 374.52304,31.013446 369.99642,36.554622 365.46615,42.100652 363.49894,48.088423 364.08631,54.517935 364.67732,60.953515 366.98797,66.114842 371.0231,70.001918 z M 459.23653,298.03236 498.03448,287.22549 494.14133,254.18838 C 481.41823,255.2988 468.93784,256.48932 456.71109,257.76235 L 459.23653,298.03236 z M 552.11131,203.728 C 563.81258,186.687 568.50061,165.39971 566.1657,139.86248 564.49946,121.6249 558.99712,107.51226 549.6611,97.520908 540.32751,87.534412 529.51093,83.100015 517.22593,84.222571 510.89107,84.802659 504.49069,87.856009 498.02841,93.382623 491.56249,98.910449 486.75188,103.99654 483.59538,108.64209 480.43645,113.28644 478.71196,116.108 478.41585,117.10191 476.73505,107.19066 474.85401,97.199311 472.77273,87.125438 L 438.60821,97.798816 C 443.92609,117.83613 448.14205,140.68165 451.26457,166.33902 L 450.97695,166.3645 454.58491,223.87089 C 482.16943,221.02263 510.9736,218.57971 540.98405,216.55304 545.01797,212.90747 548.73514,208.6454 552.11131,203.728 z M 511.55368,200.03145 C 506.17513,200.52174 498.22622,200.37854 487.7009,199.59821 L 482.7835,158.52117 480.51897,133.75336 C 489.60864,127.31049 499.24077,123.62123 509.41901,122.69042 524.58382,121.30331 533.34097,133.42569 535.68559,159.05758 538.029,184.68825 529.98422,198.3458 511.55368,200.03145 z M 766.31186,96.500293 C 758.19548,85.501677 747.96749,79.846425 735.63515,79.539391 729.27482,79.38284 722.56375,81.67528 715.5044,86.417925 708.44261,91.16057 703.07619,95.655646 699.40392,99.905579 695.72801,104.15187 693.68678,106.75499 693.28144,107.70886 692.75597,97.670177 692.04238,87.527131 691.14191,77.280931 L 655.97377,83.931313 C 658.93368,104.44799 660.48098,127.62966 660.61326,153.47392 L 660.32443,153.46664 653.29905,285.20732 693.08484,278.95863 693.00718,223.70463 C 698.00346,224.40729 702.52887,224.80898 706.57493,224.90971 726.2336,225.39635 742.85956,217.85521 756.45886,202.28021 770.05209,186.70763 777.16849,166.10601 777.80562,140.47048 778.26071,122.15888 774.42703,107.50498 766.31186,96.500293 z M 716.60147,193.91383 C 711.20107,193.78034 703.32255,192.71603 692.95985,190.72456 L 692.82635,149.35384 693.44285,124.49136 C 703.21818,119.14193 713.21196,116.591 723.43025,116.84464 738.65331,117.22206 745.95053,130.27647 745.31219,156.00544 744.67385,181.73562 735.10239,194.37135 716.60147,193.91383 z M 884.5491,82.073332 861.99848,151.52128 854.53743,172.453 850.78021,172.36077 841.96239,142.92433 824.98571,80.887671 786.35645,87.160632 813.81476,158.13647 833.75984,217.06638 802.32829,283.11269 839.42844,291.84313 865.49843,220.45711 920.00001,87.292911 z"/>
</svg>
