<svg xmlns="http://www.w3.org/2000/svg" viewBox="0 0 758.109 274.611">
    <path fill="#95A5A6" d="M502.002 184.627c-121.702 5.453-222.27 18.327-298.912 38.265-60.926 15.848-88.231 31.605-97.205 36.784-1.033.596-1.849 1.066-2.372 1.34-3.938 2.054-14.25 6.453-24.92 2.935-8.673-2.86-16.007-10.348-21.8-22.255-15.698-32.267-20.175-142.332-11.247-189.79 8.017-42.615 24.343-42.634 33.073-42.594h.363c4.002 0 15.893 1.848 22.751 10.284 4.735 5.825 6.092 13.787 4.024 23.7-11.25 56.099-10.934 93.537-10.814 107.631.01 1.159.018 2.153.018 2.979 0 2.054.328 4.968.743 8.657 1.309 11.637 3.745 33.298-4.181 42.899-2.489 3.016-5.882 4.653-10.295 5.002-3.753.221-6.946-1.033-9.746-3.869-14.047-14.223-13.861-61.253-12.604-78.175 0 0-1.384-3.06-4.564-3.215-3.18-.156-4.719 2.524-4.719 2.524-.198 2.656-4.621 65.266 15.262 85.405 4.734 4.795 10.432 7.03 17.024 6.616 7.041-.556 12.7-3.368 16.821-8.36 10.438-12.646 7.818-35.945 6.253-49.866-.367-3.266-.685-6.085-.685-7.617 0-.847-.008-1.868-.019-3.058-.117-13.83-.428-50.568 10.625-105.686 2.661-12.754.668-23.332-5.921-31.438-8.822-10.853-23.464-13.72-29.974-13.72h-.355c-9.816-.056-32.783-.028-42.228 50.18-8.513 45.255-5.784 158.978 12.024 195.584 6.934 14.252 16.104 23.344 27.255 27.021 3.949 1.303 7.8 1.82 11.432 1.82 8.815-.001 16.324-3.054 20.71-5.343.698-.363 1.545-.853 2.719-1.53 68.15-39.328 207.322-65.541 391.88-73.811l-.416-9.299z"/>
    <ellipse transform="matrix(.987 .161 -.161 .987 13.338 -4.111)" fill="#ECF0F1" cx="32.004" cy="80.139" rx="32.17" ry="24.855"/>
    <ellipse transform="matrix(.987 .161 -.161 .987 16.619 -16.27)" fill="#ECF0F1" cx="108.572" cy="94.273" rx="32.17" ry="24.855"/>
    <ellipse transform="matrix(.987 .161 -.161 .987 13.338 -4.111)" fill="#3498DB" cx="32.004" cy="80.139" rx="16.233" ry="12.542"/>
    <ellipse transform="matrix(.987 .161 -.161 .987 16.679 -16.265)" fill="#3498DB" cx="108.572" cy="94.655" rx="16.233" ry="12.542"/>
    <path fill="#34495E" d="M8.392 55.062s19.548-17.049 36.536-12.86c16.988 4.188 17.57.814 16.639-2.676-.931-3.491-5.469-6.051-19.083-6.167s-28.506 10.362-34.092 21.703zM146.618 82.744s-12.924-23.704-30.418-23.979c-17.281-.272-15.99-3.684-14.605-7.021 1.28-3.085 6.855-4.848 19.776-.558 12.92 4.29 23.627 19.019 25.247 31.558z"/>
    <path fill="#E67E22" d="M166.989 201.979c8.317 8.973 18.409 12.915 30.275 11.83 5.376-.491 10.415-2.112 15.111-4.851 4.692-2.741 8.458-5.64 11.291-8.69 2.832-3.048 5.463-6.52 7.9-10.414 2.435-3.89 3.945-6.582 4.526-8.07.583-1.489 1.075-2.649 1.476-3.484l-12.993-11.257-2.263 4.036c-1.682 2.546-4.234 5.172-7.656 7.879-3.424 2.706-7.031 4.232-10.828 4.578-7.438.681-13.378-1.925-17.825-7.822-4.449-5.893-7.141-13.98-8.081-24.267-.94-10.283.261-18.091 3.603-23.422 3.341-5.33 8.491-8.313 15.453-8.95 6.96-.636 13.492 1.002 19.593 4.909l13.943-30.707c-5.007-2.414-9.867-4.083-14.577-5.009-4.714-.923-9.361-1.178-13.948-.759-15.033 1.375-27.497 9.854-37.398 25.434-9.904 15.584-13.971 33.024-12.207 52.325 1.42 15.506 6.285 27.743 14.605 36.711zM279.662 141.427l-8.064-122.258-31.97 8.905 13.826 119.818 2.245 53.669c10.197-1.966 20.712-3.833 31.535-5.604l-7.572-54.53zM339.224 135.982l-2.554-59.351-31.258 8.841 7.84 56.953 2.061 49.252c10.114-1.431 20.482-2.78 31.081-4.055l-7.17-51.64zM305.745 57.684c3.322 3.208 7.633 4.567 12.937 4.083 5.298-.484 9.775-3.006 13.425-7.569 3.651-4.559 5.209-9.767 4.674-15.622-.535-5.852-2.36-10.112-5.476-12.78-3.116-2.666-7.365-3.754-12.742-3.263-5.381.491-9.934 3.024-13.664 7.59-3.733 4.57-5.354 9.504-4.87 14.802.487 5.303 2.391 9.556 5.716 12.759zM378.434 245.584l31.97-8.905-3.208-27.223c-10.484.915-20.768 1.896-30.843 2.945l2.081 33.183zM454.964 167.876c9.642-14.042 13.505-31.583 11.581-52.626-1.373-15.028-5.907-26.657-13.6-34.89-7.691-8.229-16.604-11.883-26.727-10.958-5.22.478-10.494 2.994-15.819 7.548-5.328 4.555-9.292 8.746-11.893 12.574-2.603 3.827-4.024 6.152-4.268 6.971-1.385-8.167-2.935-16.4-4.65-24.701l-28.152 8.795c4.382 16.511 7.856 35.336 10.429 56.478l-.237.021 2.973 47.386c22.73-2.347 46.465-4.36 71.194-6.03 3.324-3.004 6.387-6.516 9.169-10.568zm-33.42-3.046c-4.432.404-10.982.286-19.655-.357l-4.052-33.848-1.866-20.409c7.49-5.309 15.427-8.349 23.814-9.116 12.496-1.143 19.712 8.846 21.644 29.967 1.931 21.12-4.698 32.374-19.885 33.763zM631.468 79.519c-6.688-9.063-15.116-13.723-25.278-13.976-5.241-.129-10.771 1.76-16.588 5.668-5.819 3.908-10.241 7.612-13.267 11.114-3.029 3.499-4.711 5.644-5.045 6.43-.433-8.272-1.021-16.63-1.763-25.073l-28.979 5.48c2.439 16.906 3.714 36.008 3.823 57.304l-.238-.006-5.789 108.556 32.784-5.149-.064-45.53c4.117.579 7.846.91 11.18.993 16.199.401 29.899-5.813 41.105-18.647 11.201-12.832 17.065-29.808 17.59-50.932.375-15.089-2.784-27.164-9.471-36.232zm-40.962 80.27c-4.45-.11-10.942-.987-19.481-2.628l-.11-34.09.508-20.487c8.055-4.408 16.29-6.51 24.71-6.301 12.544.311 18.557 11.068 18.031 32.269-.526 21.202-8.413 31.614-23.658 31.237zM728.897 67.631l-18.582 57.226-6.148 17.248-3.096-.076-7.266-24.256-13.989-51.119-31.831 5.169 22.626 58.485 16.435 48.559-25.9 54.423 30.571 7.194 21.482-58.823 44.91-109.729z"/>
    <path fill="#3498DB" d="M518.69 162.169c-.955-10.44-6.575-15.191-16.857-14.252-5.22.478-9.515 2.826-12.876 7.04-3.366 4.219-4.815 8.857-4.352 13.919.246 2.689.869 5.075 1.849 7.179.865 1.859 2.005 3.498 3.443 4.9 3.062 2.991 7.089 4.258 12.072 3.802 3.457-.316 6.515-1.579 9.188-3.743 1.181-.954 2.294-2.068 3.322-3.384 3.355-4.292 4.761-9.445 4.211-15.461z"/>
</svg>
